<svg width="25" height="17" viewBox="0 0 25 17" fill="none" xmlns="http://www.w3.org/2000/svg">
<path d="M1.82145 16L23.1786 16C23.6322 16 24 15.5803 24 15.0625V1.9375C24 1.41973 23.6322 1 23.1786 1L1.82145 1C1.36779 1 1.00002 1.41973 1.00002 1.9375V15.0625C1.00002 15.5803 1.36779 16 1.82145 16Z" stroke="#898A8E" stroke-width="2" stroke-linejoin="round"/>
<path d="M12.8946 11.8125C14.8286 11.8125 16.3965 10.2455 16.3965 8.3125C16.3965 6.3795 14.8286 4.8125 12.8946 4.8125C10.9606 4.8125 9.39282 6.3795 9.39282 8.3125C9.39282 10.2455 10.9606 11.8125 12.8946 11.8125Z" stroke="#898A8E" stroke-width="2" stroke-linecap="round" stroke-linejoin="round"/>
<path d="M24 5.6875C22.9107 5.6875 21.866 5.19364 21.0958 4.31456C20.3255 3.43549 19.8928 2.2432 19.8928 1" stroke="#898A8E" stroke-width="2" stroke-linecap="round" stroke-linejoin="round"/>
<path d="M1 5.6875C1.53936 5.6875 2.07343 5.56625 2.57173 5.33069C3.07004 5.09512 3.5228 4.74984 3.90419 4.31456C4.28557 3.87929 4.5881 3.36254 4.7945 2.79383C5.0009 2.22512 5.10714 1.61557 5.10714 1" stroke="#898A8E" stroke-width="2" stroke-linecap="round" stroke-linejoin="round"/>
<path d="M24 11.3125C22.9107 11.3125 21.866 11.8064 21.0958 12.6854C20.3255 13.5645 19.8928 14.7568 19.8928 16" stroke="#898A8E" stroke-width="2" stroke-linecap="round" stroke-linejoin="round"/>
<path d="M1 11.3125C1.53936 11.3125 2.07343 11.4337 2.57173 11.6693C3.07004 11.9049 3.5228 12.2502 3.90419 12.6854C4.28557 13.1207 4.5881 13.6375 4.7945 14.2062C5.0009 14.7749 5.10714 15.3844 5.10714 16" stroke="#898A8E" stroke-width="2" stroke-linecap="round" stroke-linejoin="round"/>
</svg>
